<?xml version="1.0" encoding="utf-8"?>
<!-- Generator: Adobe Illustrator 26.0.1, SVG Export Plug-In . SVG Version: 6.00 Build 0)  -->
<svg version="1.1" id="レイヤー_1" xmlns="http://www.w3.org/2000/svg" xmlns:xlink="http://www.w3.org/1999/xlink" x="0px"
	 y="0px" viewBox="0 0 15.5 10.5" style="enable-background:new 0 0 15.5 10.5;" xml:space="preserve">
<style type="text/css">
	.st0{fill:#D5491F;}
</style>
<path class="st0" d="M14.3,0c-0.1,0-0.1,0-0.2,0H1.3l6.5,6.6L14.3,0z"/>
<path class="st0" d="M15.3,0.6l-7,7.2C8,8,7.6,8,7.4,7.8L0.3,0.5C0.1,0.7,0,1,0,1.2v8c0,0.3,0.1,0.7,0.4,0.9
	c0.2,0.2,0.6,0.4,0.9,0.4h12.9c0.3,0,0.7-0.1,0.9-0.4c0.2-0.2,0.4-0.5,0.4-0.9v-8C15.5,1,15.4,0.8,15.3,0.6"/>
</svg>
