<svg xmlns="http://www.w3.org/2000/svg" width="16.769" height="13.626" viewBox="0 0 16.769 13.626">
  <path id="white_background" d="M16.052,4.89c.01.148.01.3.01.445a9.723,9.723,0,0,1-9.789,9.789v0A9.74,9.74,0,0,1,1,13.578a7,7,0,0,0,.819.05,6.908,6.908,0,0,0,4.273-1.476A3.445,3.445,0,0,1,2.878,9.763,3.429,3.429,0,0,0,4.431,9.7a3.441,3.441,0,0,1-2.76-3.372V6.288a3.419,3.419,0,0,0,1.561.431A3.445,3.445,0,0,1,2.168,2.125,9.765,9.765,0,0,0,9.258,5.719a3.444,3.444,0,0,1,5.863-3.138,6.9,6.9,0,0,0,2.185-.835,3.453,3.453,0,0,1-1.512,1.9,6.842,6.842,0,0,0,1.976-.542A6.989,6.989,0,0,1,16.052,4.89Z" transform="translate(-1 -1.497)" fill="#d5491f"/>
</svg>
