<?xml version="1.0" encoding="utf-8"?>
<!-- Generator: Adobe Illustrator 26.0.1, SVG Export Plug-In . SVG Version: 6.00 Build 0)  -->
<svg version="1.1" id="レイヤー_1" xmlns="http://www.w3.org/2000/svg" xmlns:xlink="http://www.w3.org/1999/xlink" x="0px"
	 y="0px" viewBox="0 0 396 227" style="enable-background:new 0 0 396 227;" xml:space="preserve">
<style type="text/css">
	.st0{enable-background:new    ;}
	.st1{fill:#FFFFFF;}
</style>
<g class="st0">
	<path class="st1" d="M38.9,32.6c2.2,0.5,4.1,1.3,5.3,2.6c0.5,0.7,0.7,1.3,0.5,2.1c9.3,1.1,14.5,7.9,14.5,14.8
		C59.2,63.7,47,69,31.1,69.4L30.9,68c14.9-2,24.1-7.4,24.1-17c0-5.9-4.1-10.9-11-11.8c-2.2,4.8-6.6,11.2-11.7,16.3
		c0.8,1.8,1.5,3.1,1.5,4.4c0,1.2-0.8,1.6-1.8,1.6c-1.1,0-2.1-1.2-2.8-3c-4.4,3.8-8.8,5.8-12.5,5.8c-2.7,0-4.3-1.5-4.3-4.8
		c0-8,8-15.3,15-18.9c0.3-2.9,0.7-5.9,1.2-8.7c-1.8,0.2-3.8,0.3-5.6,0.3c-4,0-6.2-1.2-8.8-5.2l1-1c3.2,2.6,5.2,3.1,8.2,3.1
		c1.9,0,3.8-0.1,5.6-0.4c0.4-2.7,0.7-4.9,0.7-5.9s-0.2-1.3-1.1-1.6c-1.1-0.4-2.3-0.5-3.6-0.7l0.1-1.3c1-0.2,2.3-0.5,3.1-0.5
		c3.5,0,6.6,2.1,6.6,3.2c0,1.3-1.1,1.5-1.6,3.6c-0.2,0.7-0.4,1.6-0.7,2.7c8.4-1.6,12.7-4.5,13.8-4.5c2.1,0,3.2,0.7,3.2,1.7
		c0,0.8-0.3,1.3-1.4,1.8c-2.6,1.1-9.8,3.2-16.3,4.3c-0.5,2.4-1,5.2-1.3,7.7c3-1.2,6.8-2,10.9-2.1c0.2-1.5-0.8-2.3-3.1-3.5L38.9,32.6
		z M28.3,55.5c-0.7-3-1.1-6.8-1.1-10c0-0.7,0-1.5,0.1-2.3c-7,4.3-11.5,10.8-11.5,15c0,1.6,0.6,2.3,2.1,2.3
		C20.8,60.6,24.9,58.3,28.3,55.5z M31.2,52.6c3.9-4.1,7.9-9.6,9.6-13.6c-3.8,0.1-7,1-10.6,2.6c-0.1,1.1-0.1,2.1-0.1,3.1
		C30.1,48.1,30.6,50.6,31.2,52.6z"/>
	<path class="st1" d="M85.4,21.6c1.1-0.5,2.6-1.3,4.1-1.3c2.5,0,6.3,1.3,6.3,2.9c0,1.4-0.9,2.4-1,3.9c-0.1,0.8-0.1,2-0.1,3.5
		c10.1-1.1,14-1.6,15.3-1.6c2.1,0,5.3,1.2,5.3,3.1c0,1.1-0.5,1.6-1.7,1.6c-2,0-6.6-1.5-18.9-0.4c0,2.9,0.1,6.3,0.1,9.4
		c1.8,1.8,2.6,4.7,2.6,8.2c0,11.2-8.4,18-20.2,20.9l-0.8-1.5c7.4-2.7,13.5-7.1,15.7-13.1c-6,2.7-10.9-2-10.9-8.2c0-4.5,3-8.6,8-8.6
		c0.9,0,1.7,0.1,2.5,0.3c-0.1-1.8-0.2-4.5-0.3-7.2c-6,0.7-12.4,2.1-16.2,3c-2.7,0.7-4,1.6-5.6,1.6c-2,0-4.9-2.7-5.6-4.5
		c-0.4-1-0.5-2.4-0.6-3.7l1.2-0.4c1.3,2,2.5,4,4.6,4c2.3,0.1,14.8-1.8,22-2.6c-0.1-2.2-0.2-4.3-0.3-5.8c-0.1-1.2-0.4-1.6-1.4-1.9
		c-0.9-0.2-2.2-0.3-4-0.4L85.4,21.6z M93.3,48.9c0-4-2-6-4.6-6c-3.1,0-5,2.7-5,5.8c0,3.5,2.1,5.9,4.9,5.9
		C91.7,54.5,93.3,53.1,93.3,48.9z M101,18.1c2.7,1.2,4.8,2.4,6.2,3.7c1.5,1.4,2.1,2.6,2.1,3.7c0,1-0.7,1.6-1.6,1.6s-1.6-1.4-2.7-2.9
		c-1.2-1.6-2.5-3.2-4.9-5.1L101,18.1z M107.7,15.6c2.9,1.2,4.9,2,6.4,3.4c1.5,1.3,2.1,2.5,2.1,3.7c0,1-0.7,1.6-1.5,1.6
		c-0.9,0-1.6-1.3-2.8-2.8c-1.3-1.6-2.4-3-4.9-4.8L107.7,15.6z"/>
	<path class="st1" d="M134.5,20.1c1.8-1,3.2-1.6,5-1.6c2.2,0,4.5,0.5,4.8,2.2c0.4,2,0.7,4.4,1.3,6.8c1.9-0.6,3.7-1.2,4.9-1.8
		c2.9-1.2,4.1-2.2,4.8-2.2c1.4-0.1,3,0.3,3.1,1.5c0,0.6-0.5,1.2-1.3,1.8c-0.9,0.7-5.2,2.5-10.4,3.9c0.8,2.4,1.5,4.5,3.2,7.9
		c2-0.6,3.8-1.3,5.4-2c3.9-1.6,4.6-2.4,5.6-2.4c1.5-0.1,2.9,0.3,2.9,1.5c0,0.7-0.3,1.2-1.4,1.9c-2.3,1.3-5.9,2.9-10.6,4.2
		c4.8,7.9,8.3,9.6,8.3,11.2c0,1.9-1,4.5-2.5,4.5c-1.5,0-2.4-1.1-4.9-2.3c-2.3-1.1-7.1-2.7-12.1-2.7c-6.5,0-11.4,2.7-11.4,6.8
		c0,5.7,7.7,6.4,13.5,6.4c4.6,0,6.2-0.7,8.5-0.7c1.7,0.1,3,0.8,3,2c0,1.8-3.8,2.8-11.7,2.8c-7.6,0-16.4-2.6-16.4-9.7
		c0-4.9,5-9.7,15.3-9.7c5.6,0,9.9,1.1,12.8,1.8c0.8,0.2,0.9,0.1,0.4-0.5c-1-1.5-3.5-4.6-5.9-9c-4.3,1-9.4,1.7-14.8,1.7
		c-8.5,0-11-5.3-4.3-9.9l1,0.9c-3.8,3.4-3,5.8,3.8,5.8c4.4,0,8.7-0.7,12.6-1.7c-1.2-2.4-2.3-5.1-3.5-7.9c-3.1,0.7-6.3,1.2-9.3,1.2
		c-4.2,0.1-7.7-0.5-10.9-5.8l0.9-0.7c3,2.3,4.9,3.4,9.8,3.4c2.3-0.1,5.4-0.6,8.4-1.3c-0.7-1.6-1.2-3.3-1.8-4.9
		c-0.5-1.4-1-2.1-2.9-2.2c-1-0.1-2.1,0-3.1,0.1L134.5,20.1z"/>
</g>
<g class="st0">
	<path class="st1" d="M194.1,37c1.4,0.2,2.7,0.5,3.6,1c1.8,1,3.1,3,3.1,4c0,1-1.2,1.4-3.2,2.1c-3.2,1-8.8,3.7-12.2,5.7
		c-4,2.3-9.5,6.5-9.5,11.2c0,3,2.8,5.3,10.6,5.3c7.1,0,10.9-1.4,12.3-1.4c1.8,0,3.3,0.5,3.3,2c0,0.7-0.8,1.2-1.8,1.6
		c-1.9,0.5-6,1.2-12.8,1.2c-8.8,0-14-2.8-14-8c0-5.7,5.8-10.5,9.1-12.9c-1.4-1.1-2.4-2.7-3-4.3c-0.9-2.6-1.7-6.8-2.2-10.5
		c-0.1-0.8-0.4-1.3-1.4-1.7c-0.8-0.3-2-0.5-2.8-0.6l-0.1-1.1c1.3-0.3,2.2-0.5,3.2-0.5c2.3,0,4.9,1.6,5,2.8c0,0.9-0.4,1.4-0.4,2.6
		c0,1.9,0.4,5.6,1.1,7.6c0.5,1.7,1.3,3.1,2.8,4.1c3.7-2.2,8.9-4.8,10.7-5.8c0.8-0.4,1-0.8,0.6-1.4c-0.4-0.9-1.5-1.5-2.5-2.1
		L194.1,37z"/>
</g>
<g class="st0">
	<path class="st1" d="M33.1,90.6c1.1-0.5,2.6-1.3,4.1-1.3c2.5,0,6.3,1.3,6.3,2.9c0,1.4-0.9,2.4-1,3.9c-0.1,0.8-0.1,2-0.1,3.5
		c10.1-1.1,14-1.6,15.3-1.6c2.1,0,5.3,1.2,5.3,3.1c0,1.1-0.5,1.6-1.7,1.6c-2,0-6.6-1.5-18.9-0.4c0,2.9,0.1,6.3,0.1,9.4
		c1.8,1.8,2.6,4.7,2.6,8.2c0,11.2-8.4,18-20.2,20.9l-0.8-1.5c7.4-2.7,13.5-7.1,15.7-13.1c-6,2.7-10.9-2-10.9-8.2c0-4.5,3-8.6,8-8.6
		c0.9,0,1.7,0.1,2.5,0.3c-0.1-1.8-0.2-4.5-0.3-7.2c-6,0.7-12.4,2.1-16.2,3c-2.7,0.7-4,1.6-5.6,1.6c-2,0-4.9-2.7-5.6-4.5
		c-0.4-1-0.5-2.4-0.6-3.7l1.2-0.4c1.3,2,2.5,4,4.6,4c2.3,0.1,14.8-1.8,22-2.6c-0.1-2.2-0.2-4.3-0.3-5.8c-0.1-1.2-0.4-1.6-1.4-1.9
		c-0.9-0.2-2.2-0.3-4-0.4L33.1,90.6z M41,117.9c0-4-2-6-4.6-6c-3.1,0-5,2.7-5,5.8c0,3.5,2.1,5.9,4.9,5.9
		C39.4,123.6,41,122.1,41,117.9z"/>
	<path class="st1" d="M80.8,90.1c1.8-1,3.2-1.6,5-1.6c2.2,0,4.5,0.5,4.8,2.2c0.4,2,0.7,4.4,1.3,6.8c1.9-0.6,3.7-1.2,4.9-1.8
		c2.9-1.2,4.1-2.2,4.8-2.2c1.4-0.1,3,0.3,3.1,1.5c0,0.6-0.5,1.2-1.3,1.8c-0.9,0.7-5.2,2.5-10.4,3.9c0.8,2.4,1.5,4.5,3.2,7.9
		c2-0.6,3.8-1.3,5.4-2c3.9-1.6,4.6-2.4,5.6-2.4c1.5-0.1,2.9,0.3,2.9,1.5c0,0.7-0.3,1.2-1.4,1.9c-2.3,1.3-5.9,2.9-10.6,4.2
		c4.8,7.9,8.3,9.6,8.3,11.2c0,1.9-1,4.5-2.5,4.5c-1.5,0-2.4-1.1-4.9-2.3c-2.3-1.1-7.1-2.7-12.1-2.7c-6.5,0-11.4,2.7-11.4,6.8
		c0,5.7,7.7,6.4,13.5,6.4c4.6,0,6.2-0.7,8.5-0.7c1.7,0.1,3,0.8,3,2c0,1.8-3.8,2.8-11.7,2.8c-7.6,0-16.4-2.6-16.4-9.7
		c0-4.9,5-9.7,15.3-9.7c5.6,0,9.9,1.1,12.8,1.8c0.8,0.2,0.9,0.1,0.4-0.5c-1-1.5-3.5-4.6-5.9-9c-4.3,1-9.4,1.7-14.8,1.7
		c-8.5,0-11-5.3-4.3-9.9l1,0.9c-3.8,3.4-3,5.8,3.8,5.8c4.4,0,8.7-0.7,12.6-1.7c-1.2-2.4-2.3-5.1-3.5-7.9c-3.1,0.7-6.3,1.2-9.3,1.2
		c-4.2,0.1-7.7-0.5-10.9-5.8l0.9-0.7c3,2.3,4.9,3.4,9.8,3.4c2.3-0.1,5.4-0.6,8.4-1.3c-0.7-1.6-1.2-3.3-1.8-4.9
		c-0.5-1.4-1-2.1-2.9-2.2c-1-0.1-2.1,0-3.1,0.1L80.8,90.1z"/>
</g>
<g class="st0">
	<path class="st1" d="M119.1,100.5c1.1,0.5,1.7,0.7,2.6,1.5c1,0.8,3.4,3.4,3.4,5.5c0,1.1-0.7,2-2,5c-1.2,2.8-3.2,8-3.2,13.2
		c0,2.7,0.4,4.1,1,5.1c0.3,0.6,0.8,0.7,1.1,0c1-1.7,3.8-8.4,5-10.9l1.2,0.6c-1,2.6-3.1,8.5-3.8,10.3c-0.4,1.6-0.8,2.6-0.8,3.5
		c0,1.5,0.7,3.1,0.7,4.3c0,1-0.5,1.6-1.4,1.6s-1.6-0.8-2.4-1.9c-1.4-2-2.9-6.7-2.9-11.7c0-6,1.6-11,2.4-14c0.6-2.4,1.2-4.2,1.3-5.8
		c0.1-1.8-1.1-3.4-2.9-5.5L119.1,100.5z M140.7,101.4c1.1-0.5,2.6-1,3.7-1c2.1,0,4.8,1.4,4.8,2.5c0,1-0.4,1.3-0.8,3.5
		c-0.2,1.1-0.3,2.5-0.4,4.1c1.4-0.4,2.5-0.8,3.2-1.1c2.1-0.8,2.8-1.3,3.2-1.3c1.1,0,2.6,0.6,2.6,1.6c0,1-0.6,1.4-2.3,2
		c-1.4,0.5-3.9,1.2-6.8,1.8c0,5.2,0.5,10.3,0.8,14.2c4.1,1.1,6.7,3,8.3,4.5c1,0.9,1.6,1.9,1.6,2.8c0,1-0.4,1.6-1.3,1.6
		c-0.8,0-1.4-0.6-2.3-1.5c-1.8-1.8-3.7-3.3-6.1-4.4c0,0.5,0,1,0,1.5c0,3.8-2.4,6.5-8.5,6.5c-4.5,0-8-2-8-5.7c0-4.2,4.4-6.2,9.8-6.2
		c1.3,0,2.5,0.1,3.6,0.2c-0.1-3.5-0.4-8.8-0.5-13.1c-1.9,0.2-3.8,0.5-5.7,0.5c-3.1,0-5.2-0.7-7.9-4.6l0.8-0.7c2,1.5,4.2,2.5,7,2.5
		c2.1,0,4-0.2,5.8-0.5c-0.1-2.5,0-5.4,0-6.7c0-1.2-0.2-1.5-0.9-1.7c-0.9-0.2-2.1-0.4-3.5-0.5L140.7,101.4z M145.8,129.7
		c-1.6-0.4-3.2-0.6-5.2-0.6c-3.1,0-6.5,1.3-6.5,3.7c0,2.2,2.3,3.2,5.3,3.2c5.5,0,6.4-2,6.4-6V129.7z"/>
</g>
<g class="st0">
	<path class="st1" d="M23.5,175.3l0.4-1.2c0.9,0,2.3,0,3.6,0.4c2.6,0.7,5.8,4.2,5.8,6c0,1.2-1.3,1.7-2.4,3c-5.6,7-13.5,13.9-21.8,18
		l-0.9-1.2c7.9-5.4,19.5-17,19.5-21.3C27.6,177.6,25.1,176,23.5,175.3z M58.8,198.9c-1.5,0-1.9-1.2-2.9-3.7
		c-3.4-8.2-8.4-14.5-15.7-20.3l1-1.2c8.7,4.7,18.9,14.2,19.8,21.5C61.2,197.5,60.2,198.9,58.8,198.9z M52.7,173.8
		c-1.3-1.6-3-3.5-5.7-5.4l0.9-1c3.1,1.3,5.4,2.6,7,4c1.5,1.5,2.1,2.5,2.1,3.7c0,1-0.5,1.6-1.5,1.6S53.9,175.4,52.7,173.8z
		 M57.8,168.9c-1.4-1.5-2.9-3.1-5.6-4.9l0.7-1c3.1,1.1,5.5,2.3,7,3.5c1.6,1.3,2.3,2.5,2.3,3.7c0,1-0.5,1.6-1.4,1.6
		C59.7,171.8,59.1,170.4,57.8,168.9z"/>
	<path class="st1" d="M89.1,160.7c1.3-0.3,3.2-0.8,4.4-0.7c2.3,0.1,6.4,2.3,6.4,3.8c0,1.3-1.4,1.3-1.8,3.7c-0.3,1.6-0.8,4.3-1.4,6.8
		c4.1-0.5,7.9-1,9.9-1.2c1.6-0.2,2.1-1.5,3.1-1.5c1.3,0,4.9,2.9,4.9,4.1c0,1.3-1.5,1.2-1.8,2.9c-1.3,8.6-2.9,16.7-6.6,23.5
		c-1.5,3-4.3,4.6-6.4,4.6c-1,0-1.5-0.5-1.9-1.8c-0.6-2.3-2.6-3.3-6-5.9l0.7-1.2c2.6,1.2,5.7,2.6,6.9,3c1.6,0.5,2.3,0.4,3.1-0.6
		c3.9-4.8,6.3-19.7,6.3-23.6c0-0.4-0.2-0.7-0.7-0.7c-3.1,0-8.4,0.7-12.2,1.3c-1.9,7.3-6.8,22.8-25.1,32.3l-1-1.2
		c14.8-10.6,19.4-21.8,21.9-30.4c-3.9,0.7-9.3,1.6-11,2.1c-1.9,0.4-2.3,1.3-3.5,1.3c-1.6,0-4-3-4.5-4.4c-0.5-1.2-0.4-2.6-0.4-3.8
		l1.2-0.3c0.9,1.6,1.8,3.7,3.4,3.7c2,0,8.7-0.7,15.4-1.6c0.7-3.3,1.5-8.1,1.5-9.9c0-1.2-0.2-1.6-1.1-2c-1.1-0.4-2.8-0.7-3.9-0.9
		V160.7z"/>
	<path class="st1" d="M135.7,184.6c-1.3,3.2-4.1,10.1-4.8,12.4c-0.6,1.9-1,3.3-1,4.4c0,1.8,1.2,3.7,1.2,5.2c0,1.2-0.6,1.8-1.8,1.8
		c-1.1,0-2.1-1-2.9-2.3c-1.6-2.5-3.5-8-3.5-13.7c0-7.3,2-12.4,2.9-16.1c0.7-2.9,1.5-5.1,1.5-7.1c0.1-2.2-1.4-4.2-3.4-6.4l1-0.8
		c1.2,0.5,2.1,1,3.1,1.8c1.3,1,4,3.8,4,6.4c0,1.4-0.9,2.5-2.3,6.2c-1.6,3.4-3.9,8.9-3.9,14.9c0,3.2,0.5,4.5,1,5.2
		c0.4,0.7,0.8,0.9,1.3,0.1c1.3-2.1,4.8-9.8,6.1-12.9L135.7,184.6z M141.8,189.8c0.4,1.5,0.9,3.8,1.8,5.3c2.1,3.6,5.3,5.7,12.8,5.7
		c6.6,0,8.9-1.1,10.4-1.1c1.6,0,3.2,0.5,3.2,2c0,2.4-5.7,3.2-12.3,3.2c-9.5,0-14.7-3.2-16.5-9.4c-0.5-1.8-0.8-3.8-0.8-5.4
		L141.8,189.8z M142.4,170.7c4.9-2.7,10.3-3.8,14.6-3.8c4.2,0,6.5,0.4,8.5,1.3c1.3,0.5,1.8,1.4,1.8,2.1c0,0.8-0.4,1.3-1.6,1.5
		c-1.5,0.2-3,0.3-5,1.2c-2.7,1.2-7,3.7-10,5.6l-1-1.1c2.7-2,7.1-5.1,8.4-6.2c0.7-0.7,0.7-1.1-3.4-1.1c-2.5,0-6.5,0.4-11.6,2
		L142.4,170.7z"/>
</g>
<g class="st0">
	<path class="st1" d="M226.6,167.8c0,0,3.2,2.4,5.3,4.3c-0.1,0.7-0.8,1-1.6,1h-20.6c-2.9,1.9-5.9,3.8-9.2,5.5h17l2.2-2.4l4.9,3.7
		c-0.4,0.5-1.4,1-2.6,1.2v15.6c-0.1,0.4-2,1.2-3.3,1.2H218v-2.7h-24v2.1c0,0.4-1.8,1.3-3.4,1.3H190v-15c-4.3,1.7-8.7,3.3-13.2,4.5
		l-0.4-1c4.6-1.6,9.3-3.6,13.7-5.9v-4.5l4.3,2h0.6c3.1-1.7,6-3.6,8.8-5.5h-25.8l-0.5-1.8h21V164H184l-0.5-1.7h14.9v-6.9l6.2,0.7
		c-0.1,0.9-0.7,1.5-2.2,1.7v4.5h7.3l2.7-3.5c0,0,2.4,1.9,4.3,3.6c2.1-2.1,4-4.2,5.6-6.3l5.3,3.2c-0.4,0.7-1.1,0.9-2.5,0.4
		c-3.3,3.9-7.7,7.9-12.9,11.6h11.4L226.6,167.8z M187.5,198.3c1.1,6.9-2.4,10.9-5.1,12.3c-1.6,1-3.8,1.1-4.4-0.2
		c-0.5-1.2,0.3-2.3,1.5-3c3-1.2,6.5-4.6,7-9.2L187.5,198.3z M197.2,180.3c-1,0.5-2.1,1-3.2,1.5v4h24v-5.5H197.2z M218,193.4v-5.8
		h-24v5.8H218z M195.9,198.9c8.5,6.6,3.8,14.5,0.7,10.7c0.5-3.4-0.3-7.7-1.6-10.5L195.9,198.9z M206.3,171.3
		c3.2-2.4,6.2-4.8,8.9-7.3h-12.7v7.3H206.3z M206.9,198.6c11.7,6,8.2,14.5,4.4,11.3c-0.3-3.5-2.9-8.1-5.1-11L206.9,198.6z
		 M218.8,198.5c15.9,4.9,13.5,15.3,8.8,12.4c-1.2-4.1-5.6-9.1-9.5-11.9L218.8,198.5z"/>
</g>
<g class="st0">
	<path class="st1" d="M248.7,160.8l0.4-1.3c5.7,0.5,8.8,2,11,3.5c2.6,1.8,3.5,3.6,3.5,5.7c0,1.5-0.7,2.3-2,2.3c-1.6,0-2-0.4-4.7-0.4
		c-3.5,0.1-7.7,1.1-9.2,1.5c-1,0.2-1.3,0.7-1.3,1.3c0,0.7,0.7,2.3,0.7,3.5c0.1,1.5-0.6,3.1-1.2,5.2c-0.6,2.8-1.5,6-1.5,9
		c0,0.7,0.4,0.8,0.9,0.4c6.8-5.7,14-8.8,20.4-8.8c9.2,0,13.5,6,13.5,12.1c0,11-16.3,15.4-30.3,14.6l-0.2-1.5c4.3-0.2,8.8-0.9,12-1.9
		c10.9-2.9,14.2-7.8,14.2-12.3c0-5.4-4.3-8.8-9.5-8.8c-6.8,0-14.1,5.4-18.9,10.8c-0.9,1-1.6,2.9-2.8,2.9c-0.7,0-1.3-0.4-2.1-1.3
		c-0.7-0.8-1.2-2-1.2-2.8c0-1,0.4-2.4,0.6-3.9c0.4-3.7,1.5-9,2-12c0.4-2.6,0.2-4.1,0.2-5.5c0-1.3,0.5-2.3,2.5-2.8
		c3.2-0.9,9.1-2.1,11.5-3.1c0.9-0.3,1-0.9,0.1-2C255.9,163.4,252.5,161.9,248.7,160.8z"/>
	<path class="st1" d="M316.7,161.2c1.4-0.5,2.6-1,3.8-1c2.9,0,6.5,2.3,6.5,4c0,1-1.2,1.4-1.2,3.5c-0.1,1.9-0.2,4.3-0.3,7.2
		c4.7-0.9,8.5-1.6,9.8-1.6c2.5,0,4.7,0.9,4.7,2.8c0,1.2-0.9,1.5-2.6,1.5c-2.4,0-4.6-0.4-8.8,0c-1,0.1-2,0.2-3.2,0.4
		c-0.2,4.3-0.5,9.6-1.2,12.3c-0.6,2.8-2,4.5-4.1,4.5c-0.9,0-1.3-0.2-2-1.3c-0.9-1.8-3.6-2.9-6-3.9l0.4-1.3c2.7,0.8,5.7,1.6,6.7,1.6
		c0.9,0,1.5-0.2,2-1.5c0.5-2,0.9-6.4,1-9.8c-6,1.1-13,2.7-17.3,3.9c-0.1,5.3-0.2,11-0.1,13.8c0.2,6.5,1.5,7.3,9.8,7.3
		c7.5,0,12.1-1.5,14-1.5c2,0,3.7,0.7,3.7,2.2c0,1.2-0.7,1.7-2.6,2.1c-2.4,0.5-7.8,1-14.2,1c-8.8,0-13.5-1.9-13.8-8.8
		c-0.2-3.4-0.1-9.3-0.2-15.1c-7.3,2.3-9.8,3.9-11.5,3.9c-1.7,0-4-2.1-4.9-4.4c-0.4-0.7-0.3-1.9-0.3-3l0.9-0.4c1,1.6,2.5,3.4,4,3.4
		c1.4,0,7.8-1.6,11.8-2.7c0.1-4.2,0.1-8-0.1-9.8c-0.1-1.8-0.5-2.1-1.5-2.5c-0.9-0.4-2.4-0.4-3.5-0.5l-0.1-1.3
		c1.2-0.4,2.5-0.8,4.1-0.8c2.3,0,6.2,2,6.2,3.6c0,1.1-1,1.3-1.2,3.7c-0.2,1.5-0.2,3.9-0.4,6.7c4-1,11.7-2.8,17.3-4
		c0.1-3.7,0.1-8.5-0.1-11c0-1-0.5-1.5-1.6-1.7c-1-0.2-2.2-0.4-3.7-0.5L316.7,161.2z"/>
	<path class="st1" d="M353.1,161.2c0.8,1.8,1.6,3.7,3.2,3.7c2.4,0,11.4-2.3,13.7-2.9c1.3-0.3,1.6-1.2,2.4-1.2c2,0,5.5,3,5.5,4.6
		c0,1.4-2.1,1.8-3.3,2.8c-3.2,2.8-12.9,12.4-15.4,15.2c-0.5,0.5-0.4,0.7,0.2,0.4c3.9-2,8.8-3.2,12.8-3.2c8.9,0,15.6,4.8,15.6,13.2
		c0,7.9-7.9,16-30.1,15.3l-0.1-1.5c15.9-1.2,26-6.2,26-15.6c0-5.7-5-9.4-11.8-9.4c-8.3,0-16.5,6.1-22.6,13c-0.9,1-1.4,1.7-2.4,1.7
		c-1.1,0-2-1.4-2-3c0-1.8,2.5-3.5,5.4-6c5.7-4.9,18.9-19.2,21.5-22.5c0.7-1.1,0.9-1.7-0.7-1.3c-2.4,0.5-8.7,2.6-11,3.6
		c-1.2,0.5-2,1.3-3.1,1.3c-1.9,0-4.5-2.6-4.8-4.3c-0.2-1-0.1-2.4,0.1-3.5L353.1,161.2z"/>
</g>
</svg>
