<?xml version="1.0" encoding="utf-8"?>
<!-- Generator: Adobe Illustrator 26.0.1, SVG Export Plug-In . SVG Version: 6.00 Build 0)  -->
<svg version="1.1" id="レイヤー_1" xmlns="http://www.w3.org/2000/svg" xmlns:xlink="http://www.w3.org/1999/xlink" x="0px"
	 y="0px" viewBox="0 0 334.2 213.8" style="enable-background:new 0 0 334.2 213.8;" xml:space="preserve">
<style type="text/css">
	.st0{opacity:0.5;enable-background:new    ;}
	.st1{fill:#FFFFFF;}
</style>
<g class="st0">
	<path class="st1" d="M323.6,9.4c0,0,6,4.6,9.6,7.9c-0.2,0.9-1.1,1.3-2.3,1.3h-4.9V73c0,6.4-1.6,10.9-13,11.8
		c-0.2-3-0.9-5.3-2.3-6.7c-1.7-1.5-3.9-2.6-8.9-3.3v-1.1c0,0,10.8,0.7,13,0.7c1.5,0,2.1-0.6,2.1-1.8V18.5h-29.1l0.2,0.2
		c-0.6,0.7-1.7,0.9-3.6,1c-2.7,4.9-7.6,13.4-11.7,18.3c8.2,5.5,11.5,13,11.5,19.6c0,7.8-2.8,12.2-11.4,12.3c0-2.4-0.3-5.5-1-6.6
		c-0.6-0.9-1.9-1.5-3.5-1.9v20.7c0,0.7-2.8,2.8-7,2.8h-1.6V11.3l9.7,3.7h5.3l4.7-4.5l5.9,5.7h32.8L323.6,9.4z M272.9,60.3
		c0.7,0,1.2-0.1,1.7-0.5c1.1-0.6,1.6-2,1.6-4.6c0-5.6-1.4-11.6-5.3-16.9c1.5-5.2,3.6-14.6,4.6-20.9h-7v42.9H272.9z M294.7,56v6.3
		c0,0.8-3.3,2.6-6.6,2.6h-1.2V27.3l8.2,3.4h6.5l3.7-4l8,6.1c-0.5,0.6-1.6,1.2-3.1,1.5v26.2c-0.1,0.6-4,2.2-6.6,2.2h-1.3V56H294.7z
		 M294.7,33.1v20.6h7.6V33.1H294.7z"/>
</g>
<g class="st0">
	<path class="st1" d="M293.4,152.7c0,0,5.5,4.3,8.8,7.3c-0.2,0.9-1.1,1.3-2.3,1.3h-43.1l-0.6-2.3h24.3c1.6-5.8,3.2-13.7,4-19.2
		l12.1,3.5c-0.3,0.9-1.3,1.6-3.1,1.5c-2.7,4-7,9.6-11.2,14.2h6.2L293.4,152.7z M257.1,136.5h16v-11.7l12.2,1
		c-0.2,1.1-0.7,1.9-2.8,2.3v8.4h5.8l4.8-6.2c0,0,5.3,4.2,8.5,7.2c-0.2,0.9-1.1,1.3-2.2,1.3h-41.6L257.1,136.5z M288.8,165.1l9,6.9
		c-0.5,0.6-1.6,1.3-3.3,1.6v22.8c-0.1,0.6-4.5,2.2-7.5,2.2h-1.5v-7h-13.7v5.8c0,0.9-3.8,2.8-7.6,2.8h-1.2v-34.2l9.2,3.7h12.5
		L288.8,165.1z M264.9,140.3c18.4,8.3,9.2,22.3,2.4,15.3c0.2-5-1.5-10.9-3.2-14.9L264.9,140.3z M285.4,189.3v-17.2h-13.7v17.2H285.4
		z M333.8,136c-0.6,0.8-1.7,1.1-3.7,1.1c-3.1,5.3-8.4,14.3-13,19.7c10.2,5.8,14.3,14.1,14.3,21.1c0,8.2-3.5,13.2-13.5,13.4
		c0-2.8-0.4-6.6-1.1-7.9c-0.7-0.8-2.2-1.6-4.3-2v-1.1h6.1c0.8,0,1.3-0.1,1.9-0.4c1.2-0.7,1.9-2.2,1.9-4.9c0-5.9-2-12.4-7.4-18
		c1.6-5.6,3.8-15.8,4.9-22.6h-8.3V198c0,0.7-2.9,3-7.5,3h-1.7v-73.7l10.3,4.9h6.6l5.1-4.9L333.8,136z"/>
</g>
<g class="st0">
	<path class="st1" d="M30.8,13.7c3-1,5.4-2,7.3-3.1C39.5,9.9,40.5,9,41.1,9c1.8,0,5.2,1,5.2,3.7c0,2-1.5,3.1-6.7,4.9
		c-2,0.8-6.5,2.2-10.9,3.2c-0.8,2.9-1.8,6.2-2.8,9.2c-2.6,8-7,20.5-9.7,25.6C15,58,14,59.5,11.4,59.5c-2.1,0-3.8-2.3-3.8-5.2
		c0-2.9,1.8-3.8,3.7-7.1c2.6-4.2,6-10.6,9-19.5c0.6-1.6,1.1-3.6,1.7-5.6c-2,0.3-4.1,0.5-5.7,0.5c-5.3,0-8.5-1.3-10.8-9L6.4,13
		c3.6,2.6,5.7,3.4,8.6,3.4c2.9,0.1,6-0.3,8.6-0.8c0.7-3.4,1.2-6.4,1.3-8.1c0.1-1.8-0.1-2.3-1.3-3.2c-1-0.8-2.5-1.5-4.1-2l0.1-1
		c1.9-0.8,3.7-1.3,5.7-1.2c4.3,0,8.8,2.2,8.8,4.1c0,1.9-1.5,3.2-3.1,8.5L30.8,13.7z M33.6,39.9c0.3,1.8,0.8,4.3,2.2,6.3
		c2.7,4,6.8,5.2,12.5,5.2c6.2,0,8.8-1.3,10.2-1.3c2.7,0,6,1.3,6,4.3c0,1.8-1.8,3.1-4.6,3.7c-2.2,0.6-5.3,1-10,1
		c-10.7,0-16.9-4.3-17.6-12.2c-0.4-2.2-0.1-5,0.1-6.9L33.6,39.9z M36.2,26.3c3.6-2.5,9.3-4.6,15-4.6c4.6,0,7.6,1.1,9.1,2
		c2.1,1.3,2.9,2.9,2.9,4.3c0,2-1.3,3-4.3,3.1c-1.3,0.1-2.8,0.1-4.6,0.6c-3.1,0.5-6.1,1.3-8.5,2.2L45.1,33c2-1.4,5.5-4.1,6.2-4.8
		c0.4-0.4,0.2-0.8-0.4-1c-1.5-0.5-4-0.8-6-0.8c-2.2,0-5.1,0.3-8.3,0.9L36.2,26.3z"/>
</g>
<g class="st0">
	<path class="st1" d="M32.4,92.3c1.7-0.2,3.4-0.4,4.8-0.4c5.6,0,9.2,3.4,9.2,12.7c0,9-2.1,19-7.3,24.7c-2.2,2.5-5.5,4.1-9.1,4.1
		c-2.7,0-3.8-1-4.6-4.5c-0.3-1.4-0.8-2-4.2-5.7l0.6-0.9c3.5,1.8,6.2,3,8.1,3c2.2,0,3.4-0.7,4.7-2.5c3.4-4.1,5.3-14,5.3-21
		c0-3.8-1.2-5.7-4.5-5.7c-1.3,0-3.1,0.3-5,0.9c-1.9,4.6-4.1,9.7-5.8,13.4c-3.2,7-7.6,16-10.1,20.3c-1.5,2.7-2.7,3.4-4.6,3.4
		c-1.7,0-3.4-1.7-3.4-4.3c0-2.1,0.3-2.9,1.6-4.5c3.4-4.3,7.2-10.2,10.6-17.2c1.3-2.7,2.5-5.5,3.6-8.3c-1.8,0.7-3.4,1.4-4.7,2
		c-2.3,1.1-3.6,1.8-5.5,1.8c-2.1,0-5.3-3.6-5.8-6.5c-0.4-1.9,0.2-3.4,0.8-4.8l1-0.2c1.3,2.2,2.1,3.8,3.9,3.8c2.4,0,7.4-1.2,12.7-2.2
		c1.8-5,2.9-9.1,2.9-10.5c0-0.9-0.3-1.7-1.1-2.1c-1.1-0.8-3.2-1.3-5.2-1.7v-1.1c1.5-0.8,3.4-1.8,6.4-1.8c3.2,0,9.7,2.8,9.7,5.3
		c0,2-2,3-3,5.3L32.4,92.3z M49.7,91.5c4.6,0.2,9.3,1.7,12.8,5c3.9,3.6,5.7,8.5,5.7,14c0,4.2-1.5,7.2-4.6,7.2
		c-2.5,0.1-2.6-2.2-4.9-3.1c-1.5-0.6-5.2-1-7.6-1.1l-0.2-1.3c2.9-0.8,5.3-1.3,6.9-2c1.6-0.7,2.2-1.5,2.2-3.4c0-2-0.6-5.3-2.5-8.3
		c-1.8-2.9-4.3-5-8.1-6L49.7,91.5z"/>
</g>
<g class="st0">
	<path class="st1" d="M31.2,183.5c5.5-2.5,11.1-4.3,17.7-4.3c9.2,0,15.8,5.1,15.8,14.3c0,7.4-5.8,14-15.5,14
		c-6.4,0-10.6-3.9-13.4-9.7l0.9-0.8c2.5,2.2,5.9,4.2,10.6,4.2c6,0,9.9-4,9.9-9.8c0-4.8-2.8-9.1-10.2-9.1c-5,0-10.7,2.7-15.8,5.7
		c0.4,10.2,1.3,12.5,1.3,15.3c0,3.5-2.7,8-5.5,8c-2.5,0-2.5-2.9-4.6-5c-1.8-1.8-4.3-3.7-6.4-5.3c-2,2.1-2.7,3.6-4.1,3.6
		c-1.2,0-2.2-0.6-3.2-1.5c-1.3-1.4-1.9-3-1.9-4.7c0-2.7,0.6-3.3,2.7-3.3c1.7,0.1,2.8-0.2,4.2-1c2.1-1,7.2-5.1,12.2-7.9v-5.5v-5.8
		c-2.5,0.6-5.4,1.1-7.4,1.1c-4.3,0-7.8-1.8-9.9-9.2l1-0.7c3.3,3.1,4.9,3.9,8.2,3.8c2.2-0.1,5.3-0.8,8.2-1.5c0-4.3,0-8.2-0.1-9.9
		c0-2.1-0.5-2.4-1.7-2.9c-1.3-0.6-2.9-0.7-5-0.9l-0.2-1c2-1.5,3.9-2.4,6.4-2.4c3.7,0,9,2.5,9,4.5c0,1.9-1.1,3.2-1.5,5.4
		c-0.3,1.2-0.6,2.9-0.8,5c3.7-1.7,5.4-3.2,6.2-3.2c1,0,5.7-0.1,5.9,3.2c0.1,1.4-1,2.6-2.7,3.5c-2.4,1.2-6.5,2.7-10.1,3.8
		c-0.2,2.7-0.4,5.5-0.4,8V183.5z M26,191.6c-2.9,2.4-6.1,5.5-8.4,7.8c2.4,1,4.8,1.9,6.4,2.3c1.5,0.3,2-0.1,2-1.4V191.6z M47.7,161
		c2.9-1,6.3-1.8,10-1.2c6.9,0.9,11.8,5.8,11.9,11c0,2.2-1.1,4.1-3.6,4.2c-1.8,0.1-3.3-2.2-5.2-2.1c-1.5,0.1-4.5,1.1-6.1,1.6
		l-0.6-0.9c1.3-0.9,4.4-3,5.3-3.9c0.9-1,1.1-1.6,0.4-2.8c-2.2-3.5-7.6-4.8-11.9-4.6L47.7,161z"/>
</g>
</svg>
