<?xml version="1.0" encoding="utf-8"?>
<!-- Generator: Adobe Illustrator 26.0.1, SVG Export Plug-In . SVG Version: 6.00 Build 0)  -->
<svg version="1.1" id="レイヤー_1" xmlns="http://www.w3.org/2000/svg" xmlns:xlink="http://www.w3.org/1999/xlink" x="0px"
	 y="0px" viewBox="0 0 334.2 195.3" style="enable-background:new 0 0 334.2 195.3;" xml:space="preserve">
<style type="text/css">
	.st0{opacity:0.5;enable-background:new    ;}
	.st1{fill:#FFFFFF;}
</style>
<g class="st0">
	<path class="st1" d="M320.6,2.2c0,0,6.3,4.7,10.2,8c-0.2,0.9-1.1,1.3-2.3,1.3h-29.2c-3,5.2-6.6,10.6-10.1,14.4h20.7l4.6-5.1
		l9.3,7.3c-0.6,0.6-1.6,1.4-3.3,1.7v44c-0.1,0.6-4.8,2.8-8.2,2.8h-1.6v-6.7h-32.1v3.7c0,1.1-4,3.4-8.2,3.4h-1.5V21.8l10.4,4.2h6.8
		c0.6-4,1.1-9.7,1.4-14.4h-28.4l-0.6-2.3h56.6L320.6,2.2z M278.5,28.2v17.7h32.1V28.2H278.5z M310.6,67.5V48.2h-32.1v19.4H310.6z"/>
</g>
<g class="st0">
	<path class="st1" d="M323.1,152.7c0,0,6,4.7,9.6,7.9c-0.2,0.9-1.1,1.3-2.3,1.3h-18.2v28c0,1.1-4.2,3.4-7.7,3.4h-1.9v-31.4h-16.8
		c-1.7,14.1-8.4,25.1-25.4,31.6l-0.6-0.8c11-7.9,15.6-18.1,16.7-30.8h-19.1l-0.6-2.3h19.9c0.1-1.6,0.2-3.2,0.2-4.9v-14.8H260
		l-0.7-2.3h17.5V118l12.4,1.2c-0.2,1.1-0.8,1.9-2.9,2.3v16h16.4v-19.6l12.6,1.3c-0.2,1.1-0.8,1.9-3,2.3v16h4.4l5-6.6
		c0,0,5.6,4.5,9.1,7.6c-0.2,0.9-1.1,1.3-2.3,1.3h-16.2v19.8h5.6L323.1,152.7z M302.6,159.6v-19.8h-16.4v14.8c0,1.7-0.1,3.3-0.2,4.9
		H302.6z"/>
</g>
<g class="st0">
	<path class="st1" d="M40.2,52.4c3.6,8.7,2.2,15.4-0.9,18c-1.9,1.5-5.1,1.5-6.7-0.4v5.1c0,0.6-2.6,2.4-6.9,2.4h-1.6V58
		c-4.3,2.6-10,5.8-17.1,9.6c-0.3,1.1-1.3,1.9-2.3,2.1L1.8,58.8c1.4-0.2,3.5-0.4,6.1-0.8V10.3H3L2.3,7.9h26l4.9-6.1
		c0,0,5.6,4.1,9,7.1c-0.2,0.9-1.1,1.3-2.3,1.3h-7.4v54.4c0.6-0.8,1.4-1.5,2.3-1.9c2.2-1.9,4.6-6.2,4.2-10.4H40.2z M16.1,10.3v13.4
		h7.9V10.3H16.1z M16.1,39.8h7.9V26h-7.9V39.8z M24.1,55.4V42h-7.9v14.7L24.1,55.4z M33.7,25.7c5.7-6,9.6-15.3,11.2-22.3l10.7,4.8
		c-0.3,0.8-1.1,1.3-3,1.2c-3.6,6.2-9.9,13.1-18.1,17.2L33.7,25.7z M60.7,25.7c21.9,7,14,23.3,6.1,16.7c-0.2-2.3-1-4.9-1.9-7.3
		c-5.3,1.9-12.6,4.2-22,7c-0.6,1.1-1.5,1.6-2.4,1.7l-3.7-10.5c2.3,0.1,5.8,0.1,10,0c1.3-5.3,2.4-11.9,3-16.7l11.6,2.7
		c-0.3,0.9-1.2,1.6-3,1.6c-2,3.6-5.1,8.3-8.4,12.3c4.2-0.1,9-0.2,13.9-0.4c-1.2-2.4-2.6-4.8-4-6.6L60.7,25.7z M65.9,68.3
		c1.9,0.8,2.3,1.7,2.3,3.2c0,3.1-2.8,4.9-11.3,4.9h-5c-5.9,0-6.8-1.6-6.8-6.6V49.6l8.7,0.9c-2.2-2.4-5-4.5-7.5-5.8l0.6-0.7
		c21.4-2.4,18.5,14,9.8,10.7c-0.5-1.1-1.2-2.1-2.1-3.2c-0.4,0.5-1.1,0.9-2.1,1.1v15.1c0,0.9,0.2,1.1,1.7,1.1h3.4h3.2
		c0.6,0,1.1-0.2,1.5-0.6c0.6-0.9,1.5-3.7,2.4-6.9h1L65.9,68.3z M78.7,17.4c-3.4,0.9-5.8,3.6-6.8,8.3C66.1,21,62,13.4,59.5,3.8
		l0.9-0.4c3.7,6.2,11.5,10.9,18.4,13.1L78.7,17.4z M66.8,51.7c20.1,8.9,11,25.4,3.7,18c0.6-5.9-1.6-12.9-4.6-17.5L66.8,51.7z"/>
</g>
<g class="st0">
	<path class="st1" d="M60,152.1l6.7-9.4c0,0,7.5,6.5,11.9,10.7c-0.2,0.9-1.1,1.3-2.5,1.3H3.6l-0.7-2.6H60z"/>
</g>
</svg>
