<?xml version="1.0" encoding="utf-8"?>
<!-- Generator: Adobe Illustrator 26.0.1, SVG Export Plug-In . SVG Version: 6.00 Build 0)  -->
<svg version="1.1" id="レイヤー_1" xmlns="http://www.w3.org/2000/svg" xmlns:xlink="http://www.w3.org/1999/xlink" x="0px"
	 y="0px" viewBox="0 0 223.4 75" style="enable-background:new 0 0 223.4 75;" xml:space="preserve">
<style type="text/css">
	.st0{enable-background:new    ;}
	.st1{fill:#FFFFFF;}
</style>
<g class="st0">
	<path class="st1" d="M23,1.3l-2,0.3l-4.1,14.6h-1.5l-3.7-12L8,16.2H6.5L2.2,1.5L0.6,1.3V0.5h6.7v0.8l-2,0.2l2.9,11.2l3.3-11.1
		L9.4,1.3V0.5H16v0.8l-2.3,0.3L17,12.8l2.9-11.2l-2-0.3V0.5H23V1.3z"/>
	<path class="st1" d="M37.5,11.9l-0.1,4.2H25.3v-0.7l2-0.2c0-2.1,0-4.2,0-6.3v-1c0-2.1,0-4.2,0-6.3l-2-0.2V0.5H37l0,4.1h-1.1
		l-0.8-3.2h-4.8c-0.1,2.1-0.1,4.2-0.1,6.4h3.1l0.3-2.3h1v5.3h-1l-0.3-2.2h-3.2c0,2.4,0,4.5,0.1,6.7h5.2l0.8-3.4H37.5z"/>
	<path class="st1" d="M47.9,0.5c3.7,0,5.3,1.6,5.3,3.7c0,1.6-1,3-4.1,3.6c3.5,0.4,4.9,1.9,4.9,4c0,2.1-1.6,4.3-6.7,4.3h-6.5v-0.7
		l2-0.2c0-2.1,0-4.3,0-6.5V7.8c0-2.1,0-4.2,0-6.3l-2-0.2V0.5H47.9z M45.8,1.4c-0.1,2-0.1,4.1-0.1,6.3h1c2.4,0,3.6-1.2,3.6-3.3
		c0-1.9-1-3-3.3-3H45.8z M47.1,15.3c2.5,0,3.9-1.2,3.9-3.4c0-2.3-1.3-3.4-4.1-3.4h-1.2c0,2.5,0,4.7,0.1,6.9H47.1z"/>
	<path class="st1" d="M76.5,10c-0.2,0.2-0.4,0.3-0.9,0.2c-1.2,0.7-2.6,1.3-3.9,1.7c1.4,1.8,3.3,2.9,5.4,3.7l0,0.2
		c-1,0.2-1.8,0.9-2.2,2.1c-1.5-1-2.7-2.2-3.5-3.7c-1.4,0.9-3.5,1.9-6.6,3.3c-0.1,0.3-0.3,0.5-0.5,0.5l-1.3-2.8
		c0.6-0.1,1.5-0.2,2.5-0.4V0.8C65.3,0.9,65,0.9,64.6,1c-0.7,1.2-2.1,3.3-3.1,4.5c2.2,1.3,3.1,3.3,3.1,5c0,2-0.8,3.1-3.1,3.2
		c0-0.6-0.1-1.5-0.3-1.8c-0.1-0.2-0.5-0.4-1-0.5V11h1.2c0.2,0,0.3,0,0.5-0.1c0.3-0.2,0.4-0.5,0.4-1.1c0-1.4-0.4-2.9-1.5-4.2
		c0.4-1.3,1-3.7,1.3-5.2h-2v16.9c0,0.2-0.7,0.8-1.9,0.8H58V-1.3l2.6,1h1.5l1.2-1.2l2.1,2v-1.8l2.7,1h4.3l1.2-1.3l2.4,1.8
		c-0.1,0.2-0.4,0.4-0.9,0.5v7.1c0,0.1-0.5,0.3-1,0.4L76.5,10z M67.8,0.4v2.8h4.8V0.4H67.8z M72.6,3.8h-4.8V7h4.8V3.8z M67.8,14.5
		c1.1-0.2,2.2-0.4,3.4-0.6c-0.8-1.6-1.4-3.6-1.7-6.3h-1.7V14.5z M69.8,7.6c0.3,1.5,0.9,2.8,1.6,3.8c0.8-0.8,1.7-1.9,2.4-3
		c-0.3,0-0.5,0.1-0.8,0.1h-0.4V7.6H69.8z"/>
	<path class="st1" d="M90.6,15c1,0.1,2,0.1,3.3,0.1s4,0,5.4,0v0.3c-0.9,0.2-1.3,1.1-1.3,2.1h-4.2c-4.9,0-7.5-0.9-9.1-4.8
		c-1,2-2.5,3.9-5,5.2l-0.2-0.2c2.7-2.6,3.7-6.6,3.9-9.7l3.3,0.5c-0.1,0.3-0.3,0.5-0.8,0.5c-0.2,1-0.5,2-0.9,3c0.8,1.2,1.8,2,3.2,2.5
		V5.9h-5.7l-0.2-0.6h11l1.3-1.6c0,0,0.3,0.2,0.7,0.5c0.2-0.7,0.4-1.5,0.5-2.1H83c0.1,1.5-0.5,2.6-1.2,3c-0.7,0.4-1.7,0.3-2-0.6
		c-0.3-0.8,0.2-1.4,0.9-1.7c0.8-0.4,1.7-1.5,1.7-2.7h0.3c0.2,0.5,0.3,0.9,0.3,1.3H88v-3.3l3.3,0.3c0,0.3-0.2,0.5-0.8,0.6v2.4h5.1
		l1.3-1.3l2.2,2.1c-0.2,0.2-0.4,0.2-0.8,0.3c-0.7,0.6-1.7,1.4-2.6,2c0.4,0.3,0.8,0.6,1.2,0.9c0,0.2-0.3,0.3-0.6,0.3h-5.7v4h2.9
		l1.3-1.7c0,0,1.4,1.1,2.3,1.9c-0.1,0.2-0.3,0.3-0.6,0.3h-5.9V15z"/>
</g>
<g class="st0">
	<path class="st1" d="M15.1,56.4c3.9-1.9,8-3.4,12.7-3.4c5.6,0,9.6,3.4,9.6,8.9c0,4.8-3.7,8.9-9.8,8.9c-3.6,0-6.6-1.8-8.9-5.2
		l0.8-0.7c1.8,1.6,4.1,2.8,7.3,2.8c4.5,0,7-2.9,7-6.6c0-3.4-2.1-6.2-7.1-6.2c-3.7,0-7.9,1.9-11.6,4c0.2,6.5,0.8,8.2,0.8,10
		c0,2.2-1.4,4.6-3,4.6c-1.2,0-1.3-1.6-2.8-3c-1.1-1-3.1-2.5-4.8-3.7c-1.4,1.3-1.9,1.9-2.7,1.9c-0.6,0-1.1-0.4-1.6-0.9
		c-0.7-0.7-1-1.5-1-2.3c0-1.3,0.3-1.6,1.4-1.6c1.3,0.1,1.9-0.1,2.8-0.6c1.6-0.9,5.2-3.8,8.5-5.6v-3v-5.6c-1.7,0.4-3.8,0.8-5.1,0.8
		c-2.5,0-4.6-0.6-6.3-5.1l0.8-0.6c2.3,2.3,3.1,2.8,5.5,2.7c1.4,0,3.3-0.4,5.2-0.9c0-3.3,0-6.3,0-7.4c0-1.2-0.3-1.4-1-1.6
		c-0.8-0.3-1.8-0.3-3.1-0.4l-0.1-0.8c1.1-0.7,2.3-1.1,3.6-1.1c1.9,0,5.1,1.6,5.1,2.8c0,1.1-0.7,1.9-1,3.4c-0.2,0.9-0.4,2.4-0.6,4.2
		c3.3-1.3,4.7-2.7,5.6-2.7c0.8,0,2.6,0.1,2.6,1.5c0,0.8-0.6,1.4-1.6,1.9c-1.7,0.8-4.7,1.9-6.9,2.6c-0.1,2.1-0.2,4.2-0.2,6.2V56.4z
		 M12.6,60.4c-2.2,1.6-4.5,3.7-6.4,5.4c1.7,0.8,3.7,1.8,5,2.3c1,0.4,1.4,0,1.4-0.9V60.4z M26.9,40.7c2.2-0.6,4.2-0.8,6.4-0.4
		c3.9,0.7,7.3,3.9,7.4,7c0,1.1-0.4,2-1.6,2.1c-1.1,0.2-1.7-1.2-3.1-0.9c-0.8,0.1-2.7,0.9-3.7,1.3L31.7,49c0.9-0.6,3.1-2,3.7-2.6
		c0.6-0.6,0.6-1,0.1-1.8c-1.7-2.5-5.4-3-8.6-2.8L26.9,40.7z"/>
	<path class="st1" d="M65.7,51.7c2.3-0.3,4.4-0.8,6.2-1.4c1.7-0.6,2.5-1.1,3-1.1c1.3,0,2.7,0.5,2.7,1.6c0,0.8-0.6,1.4-1.6,1.7
		c-1.7,0.7-5.6,1.5-10.2,2.1c0.1,2.9,0.4,5.3,0.6,7.4c5.7,1.1,9.5,3.6,11,4.7c1.2,0.9,1.9,1.9,1.9,3s-0.7,1.6-1.5,1.6
		c-0.9,0-1.5-0.5-2.4-1.3c-2.4-2.2-5.3-4-8.6-5.1c0,0.7,0,1.3,0,1.9c0,3.9-3.3,6.3-8.6,6.3c-4.8,0-8.3-2.2-8.3-5.7
		c0-3.8,4.8-6,10.8-6c0.9,0,1.9,0,2.8,0.1c-0.1-1.9-0.2-4.2-0.3-6.7c-1.9,0.1-3.8,0.2-5.6,0.2c-6.5,0-9.9-3.3-4.7-8.1l0.9,0.5
		c-2.8,3.7-0.9,4.7,3.5,4.7c1.9,0,3.8-0.1,5.7-0.3v-2c0-1.4,0-2.8,0-4.3c-2.2,0.2-4.5,0.4-6.7,0.4c-4.4,0-7.3-1.2-9.7-5.3l0.8-0.6
		c2.3,1.8,4,3,8.3,3c2.4,0,5-0.2,7.4-0.6c0-2.2,0.1-3.9,0.1-4.4c0-0.9-0.2-1.2-1-1.5c-1-0.3-1.9-0.5-3.4-0.7l-0.1-0.9
		c0.9-0.5,2.1-0.9,3.5-0.9c2.3,0,5.4,1.4,5.4,2.7c0,1-0.7,1.5-0.9,2.6c-0.1,0.7-0.3,1.6-0.4,2.6c2.8-0.5,5.2-1.1,6.5-1.5
		c1.5-0.5,2.3-1,2.8-1c1.2,0,2.9,0.5,2.9,1.7c0,1-0.7,1.4-1.7,1.8c-1.7,0.6-5.9,1.6-10.8,2.3c-0.1,1.7-0.2,3.7-0.2,5.9V51.7z
		 M63.4,64.3C62,64,60.5,63.9,59,63.9c-4.4,0-7.3,1.6-7.3,3.5c0,1.6,1.7,2.9,4.7,2.9C61.8,70.3,63.3,68.6,63.4,64.3z"/>
	<path class="st1" d="M97.4,53.3c-1.1,3.1-2.6,7.7-3.1,9.4c-0.3,1-0.5,2-0.5,3.1c0,1.5,0.7,2.3,0.7,4c0,1-0.7,1.6-1.7,1.6
		c-1,0-1.9-0.8-2.6-2c-1.3-2.1-2.8-5.7-2.8-11.6c0-6.2,3-13.1,3-16.8c0-1.9-1.1-3.5-2.7-5.2l0.6-0.7c1.3,0.4,2,0.8,2.9,1.4
		c1.1,0.8,3.5,3.2,3.5,5.5c0,1.1-0.8,2.4-1.5,3.9c-1.5,3.1-3.1,7.4-3.1,11.4c0,2.3,0.4,3.9,0.9,4.9c0.4,0.7,0.8,0.7,1.2,0
		c0.9-1.5,3-6.4,4.2-9.6L97.4,53.3z M108.4,36c1.1-0.5,2.8-1,3.8-1c1.9,0,5,1.4,5,2.7c0,0.8-0.7,1.6-0.7,3.2c0,1.1,0,2.7,0,4.4
		c0.9-0.3,1.7-0.6,2.4-0.8c1.7-0.8,2.2-1.2,2.6-1.2c1.2,0,2.7,0.7,2.7,1.7c0,0.8-0.4,1.3-1.5,1.8c-1.3,0.6-3.5,1.4-6.1,1.9
		c0.3,5,0.8,12.3-1.2,16.4c-2.2,5-6.4,7.3-11.8,9l-0.5-0.9c4.4-2.4,7.4-4.9,9.1-9.8c1.5-3.8,1.3-9.6,1.1-14.1
		c-1.7,0.3-3.5,0.4-5.2,0.4c-2.8,0-5.7-1-8-4.8l0.6-0.7c2.6,1.7,4.7,2.5,7.2,2.5c1.6,0,3.4-0.2,5.3-0.7c-0.1-2.6-0.3-5.6-0.5-7
		c-0.1-1-0.4-1.4-1.1-1.6c-0.8-0.3-2-0.5-3.1-0.7L108.4,36z"/>
	<path class="st1" d="M130.9,42.5c10.2,1.4,7.6,8.6,3.9,6.3c-0.5-2.1-2.6-4.5-4.4-5.9L130.9,42.5z M144.7,39.8
		c-1.9,5.9-5.5,16.9-6.2,19.2c-0.4,1.5-0.7,3.1-0.7,4.2c0,2.2,1.6,4.3,1.4,8.2c-0.1,2.1-1.2,3.4-3,3.4c-0.8,0-1.6-0.8-1.7-2.3
		c0.7-4.8,0.5-8.8-0.6-9.5c-0.6-0.5-1.4-0.6-2.3-0.7v-1h2.1c0.6,0,0.8,0,1.3-1c0.8-1.7,0.8-1.7,9-20.8L144.7,39.8z M134.3,32
		c10.9,1.5,8.4,8.9,4.6,6.7c-0.8-2.3-3.1-4.8-5-6.3L134.3,32z M171.6,61.2c-0.4,0.4-0.9,0.5-2.1,0.6c-2,2.8-4.5,5.1-7.6,7
		c3.8,1.4,8.1,2.2,12.8,2.6l0,0.5c-1.4,0.3-2.4,1.4-2.8,3.1c-5.2-0.9-9.5-2.3-13.1-4.4c-5,2.4-11.2,3.8-18.4,4.5l-0.2-0.8
		c6.2-1.1,11.7-2.8,16.2-5.3c-2.6-2-4.7-4.5-6.2-7.7h-6.9l-0.4-1.4h22.4l2.5-2.2L171.6,61.2z M148.3,57.4c0,0.3-1.1,1-2.9,1h-0.6
		V46.5l3.9,1.7h19.6l1.7-2l3.6,2.8c-0.3,0.3-0.7,0.6-1.6,0.8v7.3c0,0.2-1.3,0.9-3.1,0.9h-0.5v-1.4h-20.3V57.4z M151.4,46.1
		c0,0.3-1.1,1-2.9,1H148V32.2l4,1.6h13.3l1.7-2l3.7,2.8c-0.3,0.4-0.8,0.6-1.7,0.8v10.2c0,0.2-1.2,0.9-3,0.9h-0.6v-1.8h-14V46.1z
		 M148.3,49.5v5.6h5v-5.6H148.3z M151.3,61.2c1.8,2.7,4.4,4.7,7.5,6.2c2.6-1.7,4.7-3.8,6.3-6.2H151.3z M151.4,35.2v3.4h14v-3.4
		H151.4z M165.4,43.4V40h-14v3.4H165.4z M156.1,49.5v5.6h4.7v-5.6H156.1z M163.8,49.5v5.6h4.7v-5.6H163.8z"/>
	<path class="st1" d="M218,31.7c0,0,3.1,2.2,4.9,3.8c-0.1,0.5-0.7,0.7-1.3,0.7h-18.6v6.4h5.5l1.9-2l4,3.1c-0.3,0.4-1,0.8-1.9,0.9
		v20.7c0,0.3-1.7,1.1-2.9,1.1h-0.6v-3.1h-15.6v2.3c0,0.4-1.4,1.2-2.9,1.2h-0.6V41l3.7,1.6h5.6v-6.4h-19.1l-0.4-1.3h35.5L218,31.7z
		 M216.9,41.5l5.4,0.6c-0.1,0.6-0.5,1.1-1.7,1.2v30c0,0.4-1.6,1.2-3,1.2h-0.7v-3.7h-31.4v2.7c0,0.5-1.6,1.3-2.9,1.3h-0.7V41.5
		l5.3,0.6c-0.1,0.6-0.5,1.1-1.6,1.2v26.2h31.4V41.5z M193.5,44v7.8h5.9V44H193.5z M193.5,62h5.9v-8.8h-5.9V62z M203.1,44v7.8h6V44
		H203.1z M209.1,62v-8.8h-6V62H209.1z"/>
</g>
</svg>
