<?xml version="1.0" encoding="utf-8"?>
<!-- Generator: Adobe Illustrator 26.0.1, SVG Export Plug-In . SVG Version: 6.00 Build 0)  -->
<svg version="1.1" id="レイヤー_1" xmlns="http://www.w3.org/2000/svg" xmlns:xlink="http://www.w3.org/1999/xlink" x="0px"
	 y="0px" viewBox="0 0 416.9 500.2" style="enable-background:new 0 0 416.9 500.2;" xml:space="preserve">
<style type="text/css">
	.st0{opacity:0.1;}
</style>
<g class="st0">
	<path d="M41.7,0c0,23,18.7,41.7,41.7,41.7C83.4,18.7,64.7,0,41.7,0z"/>
	<path d="M0,41.7c0,23,18.7,41.7,41.7,41.7C41.7,60.3,23,41.7,0,41.7z"/>
	<path d="M41.7,0C41.7,23,23,41.7,0,41.7C0,18.7,18.7,0,41.7,0z"/>
	<path d="M83.4,41.7c0,23-18.7,41.7-41.7,41.7C41.7,60.3,60.3,41.7,83.4,41.7z"/>
</g>
<g class="st0">
	<path d="M125.1,0c0,23,18.7,41.7,41.7,41.7C166.7,18.7,148.1,0,125.1,0z"/>
	<path d="M83.4,41.7c0,23,18.7,41.7,41.7,41.7C125.1,60.3,106.4,41.7,83.4,41.7z"/>
	<path d="M125.1,0c0,23-18.7,41.7-41.7,41.7C83.4,18.7,102,0,125.1,0z"/>
	<path d="M166.7,41.7c0,23-18.7,41.7-41.7,41.7C125.1,60.3,143.7,41.7,166.7,41.7z"/>
</g>
<g class="st0">
	<path d="M208.4,0c0,23,18.7,41.7,41.7,41.7C250.1,18.7,231.5,0,208.4,0z"/>
	<path d="M166.7,41.7c0,23,18.7,41.7,41.7,41.7C208.4,60.3,189.8,41.7,166.7,41.7z"/>
	<path d="M208.4,0c0,23-18.7,41.7-41.7,41.7C166.7,18.7,185.4,0,208.4,0z"/>
	<path d="M250.1,41.7c0,23-18.7,41.7-41.7,41.7C208.4,60.3,227.1,41.7,250.1,41.7z"/>
</g>
<g class="st0">
	<path d="M291.8,0c0,23,18.7,41.7,41.7,41.7C333.5,18.7,314.8,0,291.8,0z"/>
	<path d="M250.1,41.7c0,23,18.7,41.7,41.7,41.7C291.8,60.3,273.1,41.7,250.1,41.7z"/>
	<path d="M291.8,0c0,23-18.7,41.7-41.7,41.7C250.1,18.7,268.8,0,291.8,0z"/>
	<path d="M333.5,41.7c0,23-18.7,41.7-41.7,41.7C291.8,60.3,310.5,41.7,333.5,41.7z"/>
</g>
<g class="st0">
	<path d="M375.2,0c0,23,18.7,41.7,41.7,41.7C416.9,18.7,398.2,0,375.2,0z"/>
	<path d="M333.5,41.7c0,23,18.7,41.7,41.7,41.7C375.2,60.3,356.5,41.7,333.5,41.7z"/>
	<path d="M375.2,0c0,23-18.7,41.7-41.7,41.7C333.5,18.7,352.2,0,375.2,0z"/>
	<path d="M416.9,41.7c0,23-18.7,41.7-41.7,41.7C375.2,60.3,393.8,41.7,416.9,41.7z"/>
</g>
<g class="st0">
	<path d="M41.7,83.4c0,23,18.7,41.7,41.7,41.7C83.4,102,64.7,83.4,41.7,83.4z"/>
	<path d="M0,125.1c0,23,18.7,41.7,41.7,41.7C41.7,143.7,23,125.1,0,125.1z"/>
	<path d="M41.7,83.4c0,23-18.7,41.7-41.7,41.7C0,102,18.7,83.4,41.7,83.4z"/>
	<path d="M83.4,125.1c0,23-18.7,41.7-41.7,41.7C41.7,143.7,60.3,125.1,83.4,125.1z"/>
</g>
<g class="st0">
	<path d="M125.1,83.4c0,23,18.7,41.7,41.7,41.7C166.7,102,148.1,83.4,125.1,83.4z"/>
	<path d="M83.4,125.1c0,23,18.7,41.7,41.7,41.7C125.1,143.7,106.4,125.1,83.4,125.1z"/>
	<path d="M125.1,83.4c0,23-18.7,41.7-41.7,41.7C83.4,102,102,83.4,125.1,83.4z"/>
	<path d="M166.7,125.1c0,23-18.7,41.7-41.7,41.7C125.1,143.7,143.7,125.1,166.7,125.1z"/>
</g>
<g class="st0">
	<path d="M208.4,83.4c0,23,18.7,41.7,41.7,41.7C250.1,102,231.5,83.4,208.4,83.4z"/>
	<path d="M166.7,125.1c0,23,18.7,41.7,41.7,41.7C208.4,143.7,189.8,125.1,166.7,125.1z"/>
	<path d="M208.4,83.4c0,23-18.7,41.7-41.7,41.7C166.7,102,185.4,83.4,208.4,83.4z"/>
	<path d="M250.1,125.1c0,23-18.7,41.7-41.7,41.7C208.4,143.7,227.1,125.1,250.1,125.1z"/>
</g>
<g class="st0">
	<path d="M291.8,83.4c0,23,18.7,41.7,41.7,41.7C333.5,102,314.8,83.4,291.8,83.4z"/>
	<path d="M250.1,125.1c0,23,18.7,41.7,41.7,41.7C291.8,143.7,273.1,125.1,250.1,125.1z"/>
	<path d="M291.8,83.4c0,23-18.7,41.7-41.7,41.7C250.1,102,268.8,83.4,291.8,83.4z"/>
	<path d="M333.5,125.1c0,23-18.7,41.7-41.7,41.7C291.8,143.7,310.5,125.1,333.5,125.1z"/>
</g>
<g class="st0">
	<path d="M375.2,83.4c0,23,18.7,41.7,41.7,41.7C416.9,102,398.2,83.4,375.2,83.4z"/>
	<path d="M333.5,125.1c0,23,18.7,41.7,41.7,41.7C375.2,143.7,356.5,125.1,333.5,125.1z"/>
	<path d="M375.2,83.4c0,23-18.7,41.7-41.7,41.7C333.5,102,352.2,83.4,375.2,83.4z"/>
	<path d="M416.9,125.1c0,23-18.7,41.7-41.7,41.7C375.2,143.7,393.8,125.1,416.9,125.1z"/>
</g>
<g class="st0">
	<path d="M41.7,166.7c0,23,18.7,41.7,41.7,41.7C83.4,185.4,64.7,166.7,41.7,166.7z"/>
	<path d="M0,208.4c0,23,18.7,41.7,41.7,41.7C41.7,227.1,23,208.4,0,208.4z"/>
	<path d="M41.7,166.7c0,23-18.7,41.7-41.7,41.7C0,185.4,18.7,166.7,41.7,166.7z"/>
	<path d="M83.4,208.4c0,23-18.7,41.7-41.7,41.7C41.7,227.1,60.3,208.4,83.4,208.4z"/>
</g>
<g class="st0">
	<path d="M125.1,166.7c0,23,18.7,41.7,41.7,41.7C166.7,185.4,148.1,166.7,125.1,166.7z"/>
	<path d="M83.4,208.4c0,23,18.7,41.7,41.7,41.7C125.1,227.1,106.4,208.4,83.4,208.4z"/>
	<path d="M125.1,166.7c0,23-18.7,41.7-41.7,41.7C83.4,185.4,102,166.7,125.1,166.7z"/>
	<path d="M166.7,208.4c0,23-18.7,41.7-41.7,41.7C125.1,227.1,143.7,208.4,166.7,208.4z"/>
</g>
<g class="st0">
	<path d="M208.4,166.7c0,23,18.7,41.7,41.7,41.7C250.1,185.4,231.5,166.7,208.4,166.7z"/>
	<path d="M166.7,208.4c0,23,18.7,41.7,41.7,41.7C208.4,227.1,189.8,208.4,166.7,208.4z"/>
	<path d="M208.4,166.7c0,23-18.7,41.7-41.7,41.7C166.7,185.4,185.4,166.7,208.4,166.7z"/>
	<path d="M250.1,208.4c0,23-18.7,41.7-41.7,41.7C208.4,227.1,227.1,208.4,250.1,208.4z"/>
</g>
<g class="st0">
	<path d="M291.8,166.7c0,23,18.7,41.7,41.7,41.7C333.5,185.4,314.8,166.7,291.8,166.7z"/>
	<path d="M250.1,208.4c0,23,18.7,41.7,41.7,41.7C291.8,227.1,273.1,208.4,250.1,208.4z"/>
	<path d="M291.8,166.7c0,23-18.7,41.7-41.7,41.7C250.1,185.4,268.8,166.7,291.8,166.7z"/>
	<path d="M333.5,208.4c0,23-18.7,41.7-41.7,41.7C291.8,227.1,310.5,208.4,333.5,208.4z"/>
</g>
<g class="st0">
	<path d="M375.2,166.7c0,23,18.7,41.7,41.7,41.7C416.9,185.4,398.2,166.7,375.2,166.7z"/>
	<path d="M333.5,208.4c0,23,18.7,41.7,41.7,41.7C375.2,227.1,356.5,208.4,333.5,208.4z"/>
	<path d="M375.2,166.7c0,23-18.7,41.7-41.7,41.7C333.5,185.4,352.2,166.7,375.2,166.7z"/>
	<path d="M416.9,208.4c0,23-18.7,41.7-41.7,41.7C375.2,227.1,393.8,208.4,416.9,208.4z"/>
</g>
<g class="st0">
	<path d="M41.7,250.1c0,23,18.7,41.7,41.7,41.7C83.4,268.8,64.7,250.1,41.7,250.1z"/>
	<path d="M0,291.8c0,23,18.7,41.7,41.7,41.7C41.7,310.5,23,291.8,0,291.8z"/>
	<path d="M41.7,250.1c0,23-18.7,41.7-41.7,41.7C0,268.8,18.7,250.1,41.7,250.1z"/>
	<path d="M83.4,291.8c0,23-18.7,41.7-41.7,41.7C41.7,310.5,60.3,291.8,83.4,291.8z"/>
</g>
<g class="st0">
	<path d="M125.1,250.1c0,23,18.7,41.7,41.7,41.7C166.7,268.8,148.1,250.1,125.1,250.1z"/>
	<path d="M83.4,291.8c0,23,18.7,41.7,41.7,41.7C125.1,310.5,106.4,291.8,83.4,291.8z"/>
	<path d="M125.1,250.1c0,23-18.7,41.7-41.7,41.7C83.4,268.8,102,250.1,125.1,250.1z"/>
	<path d="M166.7,291.8c0,23-18.7,41.7-41.7,41.7C125.1,310.5,143.7,291.8,166.7,291.8z"/>
</g>
<g class="st0">
	<path d="M208.4,250.1c0,23,18.7,41.7,41.7,41.7C250.1,268.8,231.5,250.1,208.4,250.1z"/>
	<path d="M166.7,291.8c0,23,18.7,41.7,41.7,41.7C208.4,310.5,189.8,291.8,166.7,291.8z"/>
	<path d="M208.4,250.1c0,23-18.7,41.7-41.7,41.7C166.7,268.8,185.4,250.1,208.4,250.1z"/>
	<path d="M250.1,291.8c0,23-18.7,41.7-41.7,41.7C208.4,310.5,227.1,291.8,250.1,291.8z"/>
</g>
<g class="st0">
	<path d="M291.8,250.1c0,23,18.7,41.7,41.7,41.7C333.5,268.8,314.8,250.1,291.8,250.1z"/>
	<path d="M250.1,291.8c0,23,18.7,41.7,41.7,41.7C291.8,310.5,273.1,291.8,250.1,291.8z"/>
	<path d="M291.8,250.1c0,23-18.7,41.7-41.7,41.7C250.1,268.8,268.8,250.1,291.8,250.1z"/>
	<path d="M333.5,291.8c0,23-18.7,41.7-41.7,41.7C291.8,310.5,310.5,291.8,333.5,291.8z"/>
</g>
<g class="st0">
	<path d="M375.2,250.1c0,23,18.7,41.7,41.7,41.7C416.9,268.8,398.2,250.1,375.2,250.1z"/>
	<path d="M333.5,291.8c0,23,18.7,41.7,41.7,41.7C375.2,310.5,356.5,291.8,333.5,291.8z"/>
	<path d="M375.2,250.1c0,23-18.7,41.7-41.7,41.7C333.5,268.8,352.2,250.1,375.2,250.1z"/>
	<path d="M416.9,291.8c0,23-18.7,41.7-41.7,41.7C375.2,310.5,393.8,291.8,416.9,291.8z"/>
</g>
<g class="st0">
	<path d="M41.7,333.5c0,23,18.7,41.7,41.7,41.7C83.4,352.2,64.7,333.5,41.7,333.5z"/>
	<path d="M0,375.2c0,23,18.7,41.7,41.7,41.7C41.7,393.8,23,375.2,0,375.2z"/>
	<path d="M41.7,333.5c0,23-18.7,41.7-41.7,41.7C0,352.2,18.7,333.5,41.7,333.5z"/>
	<path d="M83.4,375.2c0,23-18.7,41.7-41.7,41.7C41.7,393.8,60.3,375.2,83.4,375.2z"/>
</g>
<g class="st0">
	<path d="M125.1,333.5c0,23,18.7,41.7,41.7,41.7C166.7,352.2,148.1,333.5,125.1,333.5z"/>
	<path d="M83.4,375.2c0,23,18.7,41.7,41.7,41.7C125.1,393.8,106.4,375.2,83.4,375.2z"/>
	<path d="M125.1,333.5c0,23-18.7,41.7-41.7,41.7C83.4,352.2,102,333.5,125.1,333.5z"/>
	<path d="M166.7,375.2c0,23-18.7,41.7-41.7,41.7C125.1,393.8,143.7,375.2,166.7,375.2z"/>
</g>
<g class="st0">
	<path d="M208.4,333.5c0,23,18.7,41.7,41.7,41.7C250.1,352.2,231.5,333.5,208.4,333.5z"/>
	<path d="M166.7,375.2c0,23,18.7,41.7,41.7,41.7C208.4,393.8,189.8,375.2,166.7,375.2z"/>
	<path d="M208.4,333.5c0,23-18.7,41.7-41.7,41.7C166.7,352.2,185.4,333.5,208.4,333.5z"/>
	<path d="M250.1,375.2c0,23-18.7,41.7-41.7,41.7C208.4,393.8,227.1,375.2,250.1,375.2z"/>
</g>
<g class="st0">
	<path d="M291.8,333.5c0,23,18.7,41.7,41.7,41.7C333.5,352.2,314.8,333.5,291.8,333.5z"/>
	<path d="M250.1,375.2c0,23,18.7,41.7,41.7,41.7C291.8,393.8,273.1,375.2,250.1,375.2z"/>
	<path d="M291.8,333.5c0,23-18.7,41.7-41.7,41.7C250.1,352.2,268.8,333.5,291.8,333.5z"/>
	<path d="M333.5,375.2c0,23-18.7,41.7-41.7,41.7C291.8,393.8,310.5,375.2,333.5,375.2z"/>
</g>
<g class="st0">
	<path d="M375.2,333.5c0,23,18.7,41.7,41.7,41.7C416.9,352.2,398.2,333.5,375.2,333.5z"/>
	<path d="M333.5,375.2c0,23,18.7,41.7,41.7,41.7C375.2,393.8,356.5,375.2,333.5,375.2z"/>
	<path d="M375.2,333.5c0,23-18.7,41.7-41.7,41.7C333.5,352.2,352.2,333.5,375.2,333.5z"/>
	<path d="M416.9,375.2c0,23-18.7,41.7-41.7,41.7C375.2,393.8,393.8,375.2,416.9,375.2z"/>
</g>
<g class="st0">
	<path d="M41.7,416.9c0,23,18.7,41.7,41.7,41.7C83.4,435.5,64.7,416.9,41.7,416.9z"/>
	<path d="M0,458.5c0,23,18.7,41.7,41.7,41.7C41.7,477.2,23,458.5,0,458.5z"/>
	<path d="M41.7,416.9c0,23-18.7,41.7-41.7,41.7C0,435.5,18.7,416.9,41.7,416.9z"/>
	<path d="M83.4,458.5c0,23-18.7,41.7-41.7,41.7C41.7,477.2,60.3,458.5,83.4,458.5z"/>
</g>
<g class="st0">
	<path d="M125.1,416.9c0,23,18.7,41.7,41.7,41.7C166.7,435.5,148.1,416.9,125.1,416.9z"/>
	<path d="M83.4,458.5c0,23,18.7,41.7,41.7,41.7C125.1,477.2,106.4,458.5,83.4,458.5z"/>
	<path d="M125.1,416.9c0,23-18.7,41.7-41.7,41.7C83.4,435.5,102,416.9,125.1,416.9z"/>
	<path d="M166.7,458.5c0,23-18.7,41.7-41.7,41.7C125.1,477.2,143.7,458.5,166.7,458.5z"/>
</g>
<g class="st0">
	<path d="M208.4,416.9c0,23,18.7,41.7,41.7,41.7C250.1,435.5,231.5,416.9,208.4,416.9z"/>
	<path d="M166.7,458.5c0,23,18.7,41.7,41.7,41.7C208.4,477.2,189.8,458.5,166.7,458.5z"/>
	<path d="M208.4,416.9c0,23-18.7,41.7-41.7,41.7C166.7,435.5,185.4,416.9,208.4,416.9z"/>
	<path d="M250.1,458.5c0,23-18.7,41.7-41.7,41.7C208.4,477.2,227.1,458.5,250.1,458.5z"/>
</g>
<g class="st0">
	<path d="M291.8,416.9c0,23,18.7,41.7,41.7,41.7C333.5,435.5,314.8,416.9,291.8,416.9z"/>
	<path d="M250.1,458.5c0,23,18.7,41.7,41.7,41.7C291.8,477.2,273.1,458.5,250.1,458.5z"/>
	<path d="M291.8,416.9c0,23-18.7,41.7-41.7,41.7C250.1,435.5,268.8,416.9,291.8,416.9z"/>
	<path d="M333.5,458.5c0,23-18.7,41.7-41.7,41.7C291.8,477.2,310.5,458.5,333.5,458.5z"/>
</g>
<g class="st0">
	<path d="M375.2,416.9c0,23,18.7,41.7,41.7,41.7C416.9,435.5,398.2,416.9,375.2,416.9z"/>
	<path d="M333.5,458.5c0,23,18.7,41.7,41.7,41.7C375.2,477.2,356.5,458.5,333.5,458.5z"/>
	<path d="M375.2,416.9c0,23-18.7,41.7-41.7,41.7C333.5,435.5,352.2,416.9,375.2,416.9z"/>
	<path d="M416.9,458.5c0,23-18.7,41.7-41.7,41.7C375.2,477.2,393.8,458.5,416.9,458.5z"/>
</g>
</svg>
